<svg width="153" height="36" viewBox="0 0 153 36" fill="none" xmlns="http://www.w3.org/2000/svg">
<g filter="url(#filter0_d_5_41)">
<path d="M22 8.46252V11C22 12.1046 21.1046 13 20 13H15C13.8954 13 13 12.1046 13 11V8.17059C13 7.65013 13.2029 7.15016 13.5656 6.77688L15.8437 4.43223C16.6126 3.64088 17.8771 3.62171 18.6696 4.3894L21.3915 7.02598C21.7804 7.40272 22 7.92105 22 8.46252Z" fill="white"/>
<path d="M21 8.46252V11C21 11.5523 20.5523 12 20 12H15C14.4477 12 14 11.5523 14 11V8.17059C14 7.91036 14.1014 7.66038 14.2828 7.47373L16.5609 5.12909C16.9454 4.73341 17.5776 4.72383 17.9739 5.10767L20.6958 7.74425C20.8902 7.93262 21 8.19179 21 8.46252Z" stroke="#E30613" stroke-width="2"/>
</g>
<g filter="url(#filter1_d_5_41)">
<path d="M16 13.7917V19C16 20.1046 15.1046 21 14 21H4C2.89543 21 2 20.1046 2 19V13.3713C2 12.8383 2.2128 12.3273 2.59116 11.9518L7.22144 7.35647C7.98453 6.59915 9.20981 6.58059 9.99549 7.31446L15.3652 12.3301C15.7701 12.7084 16 13.2376 16 13.7917Z" fill="white"/>
<path d="M14.75 13.7917V19C14.75 19.4142 14.4142 19.75 14 19.75H4C3.58579 19.75 3.25 19.4142 3.25 19V13.3713C3.25 13.1714 3.3298 12.9798 3.47168 12.839L8.10196 8.2437C8.38812 7.95971 8.8476 7.95275 9.14223 8.22795L14.512 13.2436C14.6638 13.3855 14.75 13.5839 14.75 13.7917Z" stroke="#E30613" stroke-width="2.5"/>
</g>
<g filter="url(#filter2_d_5_41)">
<path d="M26 24.1475V31C26 32.1046 25.1046 33 24 33H12C10.8954 33 10 32.1046 10 31V23.6506C10 23.1344 10.1996 22.6382 10.557 22.2658L16.1295 16.4588C16.9002 15.6557 18.1782 15.6364 18.9729 16.4158L25.4004 22.7196C25.7839 23.0958 26 23.6104 26 24.1475Z" fill="white"/>
<path d="M24.5 24.1475V31C24.5 31.2761 24.2761 31.5 24 31.5H12C11.7239 31.5 11.5 31.2761 11.5 31V23.6506C11.5 23.5215 11.5499 23.3975 11.6392 23.3044L17.2117 17.4974C17.4044 17.2967 17.7239 17.2918 17.9226 17.4867L24.3501 23.7905C24.446 23.8846 24.5 24.0132 24.5 24.1475Z" stroke="#E30613" stroke-width="3"/>
</g>
<path d="M48.16 17.408C49.104 17.584 49.88 18.056 50.488 18.824C51.096 19.592 51.4 20.472 51.4 21.464C51.4 22.36 51.176 23.152 50.728 23.84C50.296 24.512 49.664 25.04 48.832 25.424C48 25.808 47.016 26 45.88 26H38.656V9.248H45.568C46.704 9.248 47.68 9.432 48.496 9.8C49.328 10.168 49.952 10.68 50.368 11.336C50.8 11.992 51.016 12.736 51.016 13.568C51.016 14.544 50.752 15.36 50.224 16.016C49.712 16.672 49.024 17.136 48.16 17.408ZM42.016 16.16H45.088C45.888 16.16 46.504 15.984 46.936 15.632C47.368 15.264 47.584 14.744 47.584 14.072C47.584 13.4 47.368 12.88 46.936 12.512C46.504 12.144 45.888 11.96 45.088 11.96H42.016V16.16ZM45.4 23.264C46.216 23.264 46.848 23.072 47.296 22.688C47.76 22.304 47.992 21.76 47.992 21.056C47.992 20.336 47.752 19.776 47.272 19.376C46.792 18.96 46.144 18.752 45.328 18.752H42.016V23.264H45.4ZM64.3499 22.808H57.6779L56.5739 26H53.0459L59.0699 9.224H62.9819L69.0059 26H65.4539L64.3499 22.808ZM63.4379 20.12L61.0139 13.112L58.5899 20.12H63.4379ZM74.5696 9.248V19.616C74.5696 20.752 74.8656 21.624 75.4576 22.232C76.0496 22.824 76.8816 23.12 77.9536 23.12C79.0416 23.12 79.8816 22.824 80.4736 22.232C81.0656 21.624 81.3616 20.752 81.3616 19.616V9.248H84.7456V19.592C84.7456 21.016 84.4336 22.224 83.8096 23.216C83.2016 24.192 82.3776 24.928 81.3376 25.424C80.3136 25.92 79.1696 26.168 77.9056 26.168C76.6576 26.168 75.5216 25.92 74.4976 25.424C73.4896 24.928 72.6896 24.192 72.0976 23.216C71.5056 22.224 71.2096 21.016 71.2096 19.592V9.248H74.5696ZM101.888 9.248V26H98.5279V18.872H91.3519V26H87.9919V9.248H91.3519V16.136H98.5279V9.248H101.888ZM115.467 22.808H108.795L107.691 26H104.163L110.187 9.224H114.099L120.123 26H116.571L115.467 22.808ZM114.555 20.12L112.131 13.112L109.707 20.12H114.555ZM125.687 9.248V19.616C125.687 20.752 125.983 21.624 126.575 22.232C127.167 22.824 127.999 23.12 129.071 23.12C130.159 23.12 130.999 22.824 131.591 22.232C132.183 21.624 132.479 20.752 132.479 19.616V9.248H135.863V19.592C135.863 21.016 135.551 22.224 134.927 23.216C134.319 24.192 133.495 24.928 132.455 25.424C131.431 25.92 130.287 26.168 129.023 26.168C127.775 26.168 126.639 25.92 125.615 25.424C124.607 24.928 123.807 24.192 123.215 23.216C122.623 22.224 122.327 21.016 122.327 19.592V9.248H125.687ZM144.893 26.168C143.725 26.168 142.669 25.968 141.725 25.568C140.797 25.168 140.061 24.592 139.517 23.84C138.973 23.088 138.693 22.2 138.677 21.176H142.277C142.325 21.864 142.565 22.408 142.997 22.808C143.445 23.208 144.053 23.408 144.821 23.408C145.605 23.408 146.221 23.224 146.669 22.856C147.117 22.472 147.341 21.976 147.341 21.368C147.341 20.872 147.189 20.464 146.885 20.144C146.581 19.824 146.197 19.576 145.733 19.4C145.285 19.208 144.661 19 143.861 18.776C142.773 18.456 141.885 18.144 141.197 17.84C140.525 17.52 139.941 17.048 139.445 16.424C138.965 15.784 138.725 14.936 138.725 13.88C138.725 12.888 138.973 12.024 139.469 11.288C139.965 10.552 140.661 9.992 141.557 9.608C142.453 9.208 143.477 9.008 144.629 9.008C146.357 9.008 147.757 9.432 148.829 10.28C149.917 11.112 150.517 12.28 150.629 13.784H146.933C146.901 13.208 146.653 12.736 146.189 12.368C145.741 11.984 145.141 11.792 144.389 11.792C143.733 11.792 143.205 11.96 142.805 12.296C142.421 12.632 142.229 13.12 142.229 13.76C142.229 14.208 142.373 14.584 142.661 14.888C142.965 15.176 143.333 15.416 143.765 15.608C144.213 15.784 144.837 15.992 145.637 16.232C146.725 16.552 147.613 16.872 148.301 17.192C148.989 17.512 149.581 17.992 150.077 18.632C150.573 19.272 150.821 20.112 150.821 21.152C150.821 22.048 150.589 22.88 150.125 23.648C149.661 24.416 148.981 25.032 148.085 25.496C147.189 25.944 146.125 26.168 144.893 26.168Z" fill="#E30613"/>
<defs>
<filter id="filter0_d_5_41" x="13" y="3.82596" width="11" height="11.174" filterUnits="userSpaceOnUse" color-interpolation-filters="sRGB">
<feFlood flood-opacity="0" result="BackgroundImageFix"/>
<feColorMatrix in="SourceAlpha" type="matrix" values="0 0 0 0 0 0 0 0 0 0 0 0 0 0 0 0 0 0 127 0" result="hardAlpha"/>
<feOffset dx="1" dy="1"/>
<feGaussianBlur stdDeviation="0.5"/>
<feComposite in2="hardAlpha" operator="out"/>
<feColorMatrix type="matrix" values="0 0 0 0 0 0 0 0 0 0 0 0 0 0 0 0 0 0 0.25 0"/>
<feBlend mode="normal" in2="BackgroundImageFix" result="effect1_dropShadow_5_41"/>
<feBlend mode="normal" in="SourceGraphic" in2="effect1_dropShadow_5_41" result="shape"/>
</filter>
<filter id="filter1_d_5_41" x="0" y="6.77603" width="16" height="16.224" filterUnits="userSpaceOnUse" color-interpolation-filters="sRGB">
<feFlood flood-opacity="0" result="BackgroundImageFix"/>
<feColorMatrix in="SourceAlpha" type="matrix" values="0 0 0 0 0 0 0 0 0 0 0 0 0 0 0 0 0 0 127 0" result="hardAlpha"/>
<feOffset dx="-1" dy="1"/>
<feGaussianBlur stdDeviation="0.5"/>
<feComposite in2="hardAlpha" operator="out"/>
<feColorMatrix type="matrix" values="0 0 0 0 0 0 0 0 0 0 0 0 0 0 0 0 0 0 0.25 0"/>
<feBlend mode="normal" in2="BackgroundImageFix" result="effect1_dropShadow_5_41"/>
<feBlend mode="normal" in="SourceGraphic" in2="effect1_dropShadow_5_41" result="shape"/>
</filter>
<filter id="filter2_d_5_41" x="10" y="15.8436" width="18" height="19.1564" filterUnits="userSpaceOnUse" color-interpolation-filters="sRGB">
<feFlood flood-opacity="0" result="BackgroundImageFix"/>
<feColorMatrix in="SourceAlpha" type="matrix" values="0 0 0 0 0 0 0 0 0 0 0 0 0 0 0 0 0 0 127 0" result="hardAlpha"/>
<feOffset dx="1" dy="1"/>
<feGaussianBlur stdDeviation="0.5"/>
<feComposite in2="hardAlpha" operator="out"/>
<feColorMatrix type="matrix" values="0 0 0 0 0 0 0 0 0 0 0 0 0 0 0 0 0 0 0.25 0"/>
<feBlend mode="normal" in2="BackgroundImageFix" result="effect1_dropShadow_5_41"/>
<feBlend mode="normal" in="SourceGraphic" in2="effect1_dropShadow_5_41" result="shape"/>
</filter>
</defs>
</svg>
