<svg width="180" height="24" viewBox="0 0 180 24" fill="none" xmlns="http://www.w3.org/2000/svg">
<path d="M0 0H33L39.4122 10.9923C39.7754 11.615 39.7754 12.385 39.4122 13.0077L33 24H0V12V0Z" fill="#F6F6F6"/>
<path d="M17.6666 17.3333V13.3333H20.3333V17.3333H23.6666V12H25.6666L18.9999 6L12.3333 12H14.3333V17.3333H17.6666Z" fill="#8A8A9E"/>
<path d="M36 0H173L179.412 10.9923C179.775 11.615 179.775 12.385 179.412 13.0077L173 24H36L42.4122 13.0077C42.7754 12.385 42.7754 11.615 42.4122 10.9923L36 0Z" fill="#F6F6F6"/>
<path d="M67.358 10.555C67.16 10.1737 66.885 9.88767 66.533 9.697C66.181 9.499 65.774 9.4 65.312 9.4C64.806 9.4 64.355 9.51367 63.959 9.741C63.563 9.96833 63.2513 10.291 63.024 10.709C62.804 11.127 62.694 11.611 62.694 12.161C62.694 12.711 62.804 13.1987 63.024 13.624C63.2513 14.042 63.563 14.3647 63.959 14.592C64.355 14.8193 64.806 14.933 65.312 14.933C65.994 14.933 66.5477 14.7423 66.973 14.361C67.3983 13.9797 67.6587 13.4627 67.754 12.81H64.883V11.809H69.096V12.788C69.0153 13.382 68.8027 13.9283 68.458 14.427C68.1207 14.9257 67.677 15.3253 67.127 15.626C66.5843 15.9193 65.9793 16.066 65.312 16.066C64.5933 16.066 63.937 15.901 63.343 15.571C62.749 15.2337 62.276 14.768 61.924 14.174C61.5793 13.58 61.407 12.909 61.407 12.161C61.407 11.413 61.5793 10.742 61.924 10.148C62.276 9.554 62.749 9.092 63.343 8.762C63.9443 8.42467 64.6007 8.256 65.312 8.256C66.126 8.256 66.8483 8.45767 67.479 8.861C68.117 9.257 68.579 9.82167 68.865 10.555H67.358ZM69.9148 12.942C69.9148 12.3333 70.0395 11.7943 70.2888 11.325C70.5455 10.8557 70.8901 10.4927 71.3228 10.236C71.7628 9.972 72.2468 9.84 72.7748 9.84C73.2515 9.84 73.6658 9.93533 74.0178 10.126C74.3771 10.3093 74.6631 10.5403 74.8758 10.819V9.939H76.1408V16H74.8758V15.098C74.6631 15.384 74.3735 15.6223 74.0068 15.813C73.6401 16.0037 73.2221 16.099 72.7528 16.099C72.2321 16.099 71.7555 15.967 71.3228 15.703C70.8901 15.4317 70.5455 15.0577 70.2888 14.581C70.0395 14.097 69.9148 13.5507 69.9148 12.942ZM74.8758 12.964C74.8758 12.546 74.7878 12.183 74.6118 11.875C74.4431 11.567 74.2195 11.3323 73.9408 11.171C73.6621 11.0097 73.3615 10.929 73.0388 10.929C72.7161 10.929 72.4155 11.0097 72.1368 11.171C71.8581 11.325 71.6308 11.556 71.4548 11.864C71.2861 12.1647 71.2018 12.524 71.2018 12.942C71.2018 13.36 71.2861 13.7267 71.4548 14.042C71.6308 14.3573 71.8581 14.5993 72.1368 14.768C72.4228 14.9293 72.7235 15.01 73.0388 15.01C73.3615 15.01 73.6621 14.9293 73.9408 14.768C74.2195 14.6067 74.4431 14.372 74.6118 14.064C74.7878 13.7487 74.8758 13.382 74.8758 12.964ZM79.0419 10.819C79.2252 10.511 79.4672 10.2727 79.7679 10.104C80.0759 9.928 80.4389 9.84 80.8569 9.84V11.138H80.5379C80.0466 11.138 79.6726 11.2627 79.4159 11.512C79.1666 11.7613 79.0419 12.194 79.0419 12.81V16H77.7879V9.939H79.0419V10.819ZM81.5916 12.942C81.5916 12.3333 81.7162 11.7943 81.9656 11.325C82.2222 10.8557 82.5669 10.4927 82.9996 10.236C83.4396 9.972 83.9272 9.84 84.4626 9.84C84.8586 9.84 85.2472 9.928 85.6286 10.104C86.0172 10.2727 86.3252 10.5 86.5526 10.786V7.86H87.8176V16H86.5526V15.087C86.3472 15.3803 86.0612 15.6223 85.6946 15.813C85.3352 16.0037 84.9209 16.099 84.4516 16.099C83.9236 16.099 83.4396 15.967 82.9996 15.703C82.5669 15.4317 82.2222 15.0577 81.9656 14.581C81.7162 14.097 81.5916 13.5507 81.5916 12.942ZM86.5526 12.964C86.5526 12.546 86.4646 12.183 86.2886 11.875C86.1199 11.567 85.8962 11.3323 85.6176 11.171C85.3389 11.0097 85.0382 10.929 84.7156 10.929C84.3929 10.929 84.0922 11.0097 83.8136 11.171C83.5349 11.325 83.3076 11.556 83.1316 11.864C82.9629 12.1647 82.8786 12.524 82.8786 12.942C82.8786 13.36 82.9629 13.7267 83.1316 14.042C83.3076 14.3573 83.5349 14.5993 83.8136 14.768C84.0996 14.9293 84.4002 15.01 84.7156 15.01C85.0382 15.01 85.3389 14.9293 85.6176 14.768C85.8962 14.6067 86.1199 14.372 86.2886 14.064C86.4646 13.7487 86.5526 13.382 86.5526 12.964ZM95.0196 12.821C95.0196 13.0483 95.005 13.2537 94.9756 13.437H90.3446C90.3813 13.921 90.561 14.3097 90.8836 14.603C91.2063 14.8963 91.6023 15.043 92.0716 15.043C92.7463 15.043 93.223 14.7607 93.5016 14.196H94.8546C94.6713 14.7533 94.3376 15.2117 93.8536 15.571C93.377 15.923 92.783 16.099 92.0716 16.099C91.4923 16.099 90.9716 15.9707 90.5096 15.714C90.055 15.45 89.6956 15.0833 89.4316 14.614C89.175 14.1373 89.0466 13.5873 89.0466 12.964C89.0466 12.3407 89.1713 11.7943 89.4206 11.325C89.6773 10.8483 90.033 10.4817 90.4876 10.225C90.9496 9.96833 91.4776 9.84 92.0716 9.84C92.6436 9.84 93.1533 9.96467 93.6006 10.214C94.048 10.4633 94.3963 10.8153 94.6456 11.27C94.895 11.7173 95.0196 12.2343 95.0196 12.821ZM93.7106 12.425C93.7033 11.963 93.5383 11.5927 93.2156 11.314C92.893 11.0353 92.4933 10.896 92.0166 10.896C91.584 10.896 91.2136 11.0353 90.9056 11.314C90.5976 11.5853 90.4143 11.9557 90.3556 12.425H93.7106ZM99.3117 9.84C99.7884 9.84 100.214 9.939 100.588 10.137C100.969 10.335 101.266 10.6283 101.479 11.017C101.691 11.4057 101.798 11.875 101.798 12.425V16H100.555V12.612C100.555 12.0693 100.419 11.655 100.148 11.369C99.8764 11.0757 99.506 10.929 99.0367 10.929C98.5674 10.929 98.1934 11.0757 97.9147 11.369C97.6434 11.655 97.5077 12.0693 97.5077 12.612V16H96.2537V9.939H97.5077V10.632C97.713 10.3827 97.9734 10.1883 98.2887 10.049C98.6114 9.90967 98.9524 9.84 99.3117 9.84ZM112.162 16L111.216 15.054C110.849 15.4207 110.449 15.6957 110.017 15.879C109.584 16.055 109.1 16.143 108.565 16.143C108.022 16.143 107.542 16.0477 107.124 15.857C106.706 15.6663 106.383 15.395 106.156 15.043C105.928 14.6837 105.815 14.2693 105.815 13.8C105.815 13.272 105.965 12.8027 106.266 12.392C106.566 11.974 107.014 11.644 107.608 11.402C107.395 11.1453 107.245 10.907 107.157 10.687C107.069 10.4597 107.025 10.2103 107.025 9.939C107.025 9.60167 107.109 9.301 107.278 9.037C107.454 8.773 107.703 8.564 108.026 8.41C108.348 8.256 108.722 8.179 109.148 8.179C109.58 8.179 109.947 8.26333 110.248 8.432C110.556 8.59333 110.783 8.817 110.93 9.103C111.084 9.389 111.146 9.708 111.117 10.06H109.863C109.87 9.78867 109.804 9.57967 109.665 9.433C109.525 9.279 109.335 9.202 109.093 9.202C108.851 9.202 108.653 9.27533 108.499 9.422C108.352 9.56133 108.279 9.73367 108.279 9.939C108.279 10.137 108.334 10.335 108.444 10.533C108.561 10.7237 108.763 10.973 109.049 11.281L111.073 13.294L111.854 12.007H113.207L112.217 13.701L111.942 14.152L113.801 16H112.162ZM108.565 15.076C109.254 15.076 109.863 14.7937 110.391 14.229L108.367 12.194C107.501 12.5387 107.069 13.0593 107.069 13.756C107.069 14.13 107.208 14.4453 107.487 14.702C107.765 14.9513 108.125 15.076 108.565 15.076ZM118.734 14.988H121.319V16H117.48V8.355H118.734V14.988ZM127.923 12.821C127.923 13.0483 127.908 13.2537 127.879 13.437H123.248C123.285 13.921 123.464 14.3097 123.787 14.603C124.11 14.8963 124.506 15.043 124.975 15.043C125.65 15.043 126.126 14.7607 126.405 14.196H127.758C127.575 14.7533 127.241 15.2117 126.757 15.571C126.28 15.923 125.686 16.099 124.975 16.099C124.396 16.099 123.875 15.9707 123.413 15.714C122.958 15.45 122.599 15.0833 122.335 14.614C122.078 14.1373 121.95 13.5873 121.95 12.964C121.95 12.3407 122.075 11.7943 122.324 11.325C122.581 10.8483 122.936 10.4817 123.391 10.225C123.853 9.96833 124.381 9.84 124.975 9.84C125.547 9.84 126.057 9.96467 126.504 10.214C126.951 10.4633 127.3 10.8153 127.549 11.27C127.798 11.7173 127.923 12.2343 127.923 12.821ZM126.614 12.425C126.607 11.963 126.442 11.5927 126.119 11.314C125.796 11.0353 125.397 10.896 124.92 10.896C124.487 10.896 124.117 11.0353 123.809 11.314C123.501 11.5853 123.318 11.9557 123.259 12.425H126.614ZM129.795 9.136C129.568 9.136 129.377 9.059 129.223 8.905C129.069 8.751 128.992 8.56033 128.992 8.333C128.992 8.10567 129.069 7.915 129.223 7.761C129.377 7.607 129.568 7.53 129.795 7.53C130.015 7.53 130.202 7.607 130.356 7.761C130.51 7.915 130.587 8.10567 130.587 8.333C130.587 8.56033 130.51 8.751 130.356 8.905C130.202 9.059 130.015 9.136 129.795 9.136ZM130.411 9.939V16H129.157V9.939H130.411ZM134.257 16.099C133.781 16.099 133.352 16.0147 132.97 15.846C132.596 15.67 132.299 15.4353 132.079 15.142C131.859 14.8413 131.742 14.5077 131.727 14.141H133.025C133.047 14.3977 133.168 14.614 133.388 14.79C133.616 14.9587 133.898 15.043 134.235 15.043C134.587 15.043 134.859 14.977 135.049 14.845C135.247 14.7057 135.346 14.5297 135.346 14.317C135.346 14.0897 135.236 13.921 135.016 13.811C134.804 13.701 134.463 13.58 133.993 13.448C133.539 13.3233 133.168 13.2023 132.882 13.085C132.596 12.9677 132.347 12.788 132.134 12.546C131.929 12.304 131.826 11.985 131.826 11.589C131.826 11.2663 131.922 10.973 132.112 10.709C132.303 10.4377 132.574 10.225 132.926 10.071C133.286 9.917 133.696 9.84 134.158 9.84C134.848 9.84 135.401 10.016 135.819 10.368C136.245 10.7127 136.472 11.1857 136.501 11.787H135.247C135.225 11.5157 135.115 11.2993 134.917 11.138C134.719 10.9767 134.452 10.896 134.114 10.896C133.784 10.896 133.531 10.9583 133.355 11.083C133.179 11.2077 133.091 11.3727 133.091 11.578C133.091 11.7393 133.15 11.875 133.267 11.985C133.385 12.095 133.528 12.183 133.696 12.249C133.865 12.3077 134.114 12.3847 134.444 12.48C134.884 12.5973 135.244 12.7183 135.522 12.843C135.808 12.9603 136.054 13.1363 136.259 13.371C136.465 13.6057 136.571 13.9173 136.578 14.306C136.578 14.6507 136.483 14.9587 136.292 15.23C136.102 15.5013 135.83 15.714 135.478 15.868C135.134 16.022 134.727 16.099 134.257 16.099ZM143.422 9.939V16H142.168V15.285C141.97 15.5343 141.71 15.7323 141.387 15.879C141.072 16.0183 140.735 16.088 140.375 16.088C139.899 16.088 139.47 15.989 139.088 15.791C138.714 15.593 138.417 15.2997 138.197 14.911C137.985 14.5223 137.878 14.053 137.878 13.503V9.939H139.121V13.316C139.121 13.8587 139.257 14.2767 139.528 14.57C139.8 14.856 140.17 14.999 140.639 14.999C141.109 14.999 141.479 14.856 141.75 14.57C142.029 14.2767 142.168 13.8587 142.168 13.316V9.939H143.422ZM146.331 10.819C146.514 10.511 146.756 10.2727 147.057 10.104C147.365 9.928 147.728 9.84 148.146 9.84V11.138H147.827C147.336 11.138 146.962 11.2627 146.705 11.512C146.456 11.7613 146.331 12.194 146.331 12.81V16H145.077V9.939H146.331V10.819ZM154.854 12.821C154.854 13.0483 154.839 13.2537 154.81 13.437H150.179C150.215 13.921 150.395 14.3097 150.718 14.603C151.04 14.8963 151.436 15.043 151.906 15.043C152.58 15.043 153.057 14.7607 153.336 14.196H154.689C154.505 14.7533 154.172 15.2117 153.688 15.571C153.211 15.923 152.617 16.099 151.906 16.099C151.326 16.099 150.806 15.9707 150.344 15.714C149.889 15.45 149.53 15.0833 149.266 14.614C149.009 14.1373 148.881 13.5873 148.881 12.964C148.881 12.3407 149.005 11.7943 149.255 11.325C149.511 10.8483 149.867 10.4817 150.322 10.225C150.784 9.96833 151.312 9.84 151.906 9.84C152.478 9.84 152.987 9.96467 153.435 10.214C153.882 10.4633 154.23 10.8153 154.48 11.27C154.729 11.7173 154.854 12.2343 154.854 12.821ZM153.545 12.425C153.537 11.963 153.372 11.5927 153.05 11.314C152.727 11.0353 152.327 10.896 151.851 10.896C151.418 10.896 151.048 11.0353 150.74 11.314C150.432 11.5853 150.248 11.9557 150.19 12.425H153.545Z" fill="#4F4F4F"/>
</svg>
